<svg width="478" height="478" viewBox="0 0 478 478" fill="none" xmlns="http://www.w3.org/2000/svg">
<g clip-path="url(#clip0)">
<path d="M213.333 104.461C208.053 101.412 201.547 101.412 196.266 104.461L80.794 170.424H17.067C7.641 170.424 0 178.065 0 187.49V289.89C0 299.316 7.641 306.957 17.067 306.957H80.794L196.335 372.971C204.52 377.646 214.944 374.801 219.619 366.617C221.091 364.04 221.865 361.125 221.866 358.157V119.224C221.86 113.133 218.608 107.507 213.333 104.461Z" fill="white"/>
<path d="M286.363 176.789C280.454 169.458 269.724 168.297 262.384 174.195C255.037 180.099 253.867 190.842 259.771 198.189C259.771 198.189 259.772 198.19 259.772 198.191C277.421 222.306 277.421 255.074 259.772 279.189C253.822 286.499 254.925 297.249 262.235 303.199C269.545 309.149 280.295 308.046 286.245 300.736C286.284 300.688 286.323 300.64 286.362 300.591C314.285 264.046 314.285 213.333 286.363 176.789Z" fill="white"/>
<path d="M354.628 125.59C348.719 118.259 337.989 117.098 330.649 122.996C323.302 128.9 322.132 139.643 328.037 146.99C328.037 146.991 328.038 146.991 328.038 146.992C368.691 201.366 368.691 276.016 328.038 330.39C322.088 337.7 323.191 348.45 330.501 354.4C337.811 360.35 348.561 359.247 354.511 351.937C354.55 351.889 354.589 351.841 354.628 351.792C404.771 284.727 404.771 192.654 354.628 125.59Z" fill="white"/>
<path d="M422.893 74.3894C416.943 67.0794 406.193 65.9764 398.883 71.9264C391.629 77.8304 390.478 88.4734 396.303 95.7914C459.655 180.525 459.655 296.856 396.303 381.589C390.353 388.899 391.456 399.649 398.766 405.599C406.076 411.549 416.826 410.446 422.776 403.136C422.815 403.088 422.854 403.04 422.893 402.991C495.734 305.566 495.734 171.812 422.893 74.3894Z" fill="white"/>
</g>
<defs>
<clipPath id="clip0">
<rect width="477.526" height="477.526" fill="white"/>
</clipPath>
</defs>
</svg>
