<svg width="512" height="512" viewBox="0 0 512 512" fill="none" xmlns="http://www.w3.org/2000/svg">
<path d="M422.573 256.397L490.182 185.971C496.603 179.285 496.603 168.442 490.182 161.755C483.763 155.069 473.357 155.069 466.935 161.755L399.326 232.181L331.717 161.755C325.298 155.069 314.891 155.069 308.47 161.755C302.052 168.441 302.052 179.283 308.47 185.971L376.079 256.397L308.47 326.823C302.052 333.509 302.052 344.352 308.47 351.039C311.681 354.383 315.887 356.054 320.094 356.054C324.3 356.054 328.509 354.381 331.716 351.039L399.325 280.613L466.934 351.039C470.145 354.383 474.351 356.054 478.558 356.054C482.764 356.054 486.972 354.381 490.18 351.039C496.601 344.352 496.601 333.51 490.18 326.823L422.573 256.397Z" fill="white"/>
<path d="M251.79 102.61C246.003 99.1298 238.874 99.1298 233.086 102.61L106.541 177.911H36.7036C26.3737 177.911 18 186.634 18 197.393V314.289C18 325.049 26.3737 333.772 36.7036 333.772H106.541L233.162 409.131C242.132 414.467 253.555 411.22 258.678 401.877C260.292 398.935 261.14 395.608 261.141 392.219V119.463C261.134 112.51 257.571 106.088 251.79 102.61Z" fill="white"/>
</svg>
