<svg width="512" height="512" viewBox="0 0 512 512" fill="none" xmlns="http://www.w3.org/2000/svg">
<g clip-path="url(#clip0)">
<path d="M276.153 53.9017L302.785 31.0647C309.897 24.6548 310.604 13.7447 304.379 6.47086C298.153 -0.803023 287.265 -1.78975 279.834 4.24654L218.041 57.2121C214.124 60.5663 211.87 65.4649 211.87 70.6212C211.87 75.7775 214.124 80.6761 218.041 84.0303L279.834 136.996C284.599 141.291 291.32 142.663 297.388 140.58C303.456 138.496 307.916 133.285 309.037 126.968C310.159 120.651 307.765 114.223 302.785 110.178L278.854 89.6711C382.422 101.945 457.806 193.829 449.605 297.8C441.404 401.77 352.547 480.7 248.335 476.584C144.123 472.468 61.768 386.777 61.7923 282.483C61.6291 238.789 76.3597 196.344 103.556 162.146C107.562 157.205 108.602 150.492 106.277 144.571C103.952 138.651 98.6222 134.438 92.3246 133.544C86.0269 132.65 79.7353 135.213 75.8547 140.253C43.7078 180.672 26.2932 230.839 26.482 282.483C26.4554 406.63 125.148 508.295 249.241 511.95C373.333 515.606 477.84 419.927 485.121 295.994C492.403 172.061 399.819 64.8027 276.153 53.9017V53.9017Z" fill="white"/>
<path d="M165.077 136.996C169.842 141.291 176.563 142.663 182.631 140.58C188.699 138.496 193.159 133.285 194.28 126.968C195.402 120.651 193.008 114.223 188.028 110.178L141.887 70.6212L188.028 31.0647C195.14 24.6548 195.847 13.7447 189.622 6.47086C183.396 -0.803023 172.508 -1.78975 165.077 4.24654L103.284 57.2121C99.3674 60.5663 97.1133 65.4649 97.1133 70.6212C97.1133 75.7775 99.3674 80.6761 103.284 84.0303L165.077 136.996Z" fill="white"/>
<path d="M175.59 188.346L149.108 206.001C141.206 211.297 138.921 221.9 143.939 229.981C148.957 238.061 159.475 240.714 167.725 235.979V353.104H158.897C149.147 353.104 141.242 361.008 141.242 370.759C141.242 380.51 149.147 388.414 158.897 388.414H211.863C221.614 388.414 229.518 380.51 229.518 370.759C229.518 361.008 221.614 353.104 211.863 353.104H203.035V203.035C203.034 196.525 199.451 190.544 193.711 187.472C187.972 184.4 181.008 184.736 175.59 188.346Z" fill="white"/>
<path d="M326.621 388.413C350.997 388.413 370.759 368.652 370.759 344.275V229.517C370.759 205.14 350.997 185.379 326.621 185.379H300.138C275.761 185.379 256 205.14 256 229.517V344.275C256 368.652 275.761 388.413 300.138 388.413H326.621ZM291.31 344.275V229.517C291.31 224.641 295.263 220.689 300.138 220.689H326.621C331.496 220.689 335.448 224.641 335.448 229.517V344.275C335.448 349.151 331.496 353.103 326.621 353.103H300.138C295.263 353.103 291.31 349.151 291.31 344.275Z" fill="white"/>
</g>
<defs>
<clipPath id="clip0">
<rect width="512" height="512" fill="white"/>
</clipPath>
</defs>
</svg>
