<svg width="512" height="512" viewBox="0 0 512 512" fill="none" xmlns="http://www.w3.org/2000/svg">
<g clip-path="url(#clip0)">
<path d="M436.145 140.253C430.058 132.748 419.067 131.531 411.486 137.523C403.904 143.515 402.548 154.489 408.444 162.145C435.64 196.344 450.37 238.789 450.207 282.483C450.23 386.774 367.878 472.464 263.669 476.582C159.459 480.7 70.6023 401.776 62.3956 297.808C54.1889 193.841 129.563 101.954 233.128 89.6709L209.214 110.177C202.102 116.587 201.396 127.497 207.621 134.771C213.846 142.045 224.734 143.032 232.166 136.996L293.959 84.0301C297.875 80.6759 300.129 75.7773 300.129 70.621C300.129 65.4647 297.875 60.5661 293.959 57.2119L232.166 4.24634C227.4 -0.0490836 220.679 -1.42119 214.612 0.662442C208.544 2.74608 204.084 7.95746 202.962 14.2744C201.841 20.5914 204.234 27.0195 209.214 31.0645L235.865 53.9015C112.194 64.7932 19.602 172.049 26.8775 295.984C34.1529 419.92 138.659 515.605 262.754 511.952C386.849 508.299 485.545 406.632 485.517 282.483C485.706 230.839 468.292 180.672 436.145 140.253Z" fill="white"/>
<path d="M322.038 135.062C325.086 138.62 329.422 140.821 334.093 141.18C338.763 141.539 343.385 140.028 346.941 136.978L408.734 84.0125C412.65 80.6583 414.904 75.7597 414.904 70.6034C414.904 65.4471 412.65 60.5485 408.734 57.1943L346.941 4.22876C342.175 -0.0666617 335.455 -1.43877 329.387 0.644864C323.319 2.7285 318.859 7.93989 317.737 14.2568C316.616 20.5738 319.009 27.0019 323.989 31.047L370.113 70.621L323.971 110.177C316.569 116.517 315.704 127.656 322.038 135.062Z" fill="white"/>
<path d="M158.897 353.104C149.147 353.104 141.242 361.008 141.242 370.759C141.242 380.51 149.147 388.414 158.897 388.414H211.863C221.614 388.414 229.518 380.51 229.518 370.759C229.518 361.008 221.614 353.104 211.863 353.104H203.035V203.035C203.034 196.525 199.451 190.544 193.711 187.472C187.972 184.4 181.008 184.736 175.59 188.346L149.108 206.001C141.206 211.297 138.921 221.9 143.939 229.981C148.957 238.061 159.475 240.714 167.725 235.979V353.104H158.897Z" fill="white"/>
<path d="M300.138 185.379C275.761 185.379 256 205.14 256 229.517V344.275C256 368.652 275.761 388.413 300.138 388.413H326.621C350.997 388.413 370.759 368.652 370.759 344.275V229.517C370.759 205.14 350.997 185.379 326.621 185.379H300.138ZM335.448 229.517V344.275C335.448 349.151 331.496 353.103 326.621 353.103H300.138C295.263 353.103 291.31 349.151 291.31 344.275V229.517C291.31 224.641 295.263 220.689 300.138 220.689H326.621C331.496 220.689 335.448 224.641 335.448 229.517Z" fill="white"/>
</g>
<defs>
<clipPath id="clip0">
<rect width="512" height="512" fill="white"/>
</clipPath>
</defs>
</svg>
