<svg width="470" height="470" viewBox="0 0 470 470" fill="none" xmlns="http://www.w3.org/2000/svg">
<g clip-path="url(#clip0)">
<path d="M160 0H138.667C132.771 0 128 4.771 128 10.667V128H10.667C4.771 128 0 132.771 0 138.667V160C0 165.896 4.771 170.667 10.667 170.667H160C165.896 170.667 170.667 165.896 170.667 160V10.667C170.667 4.771 165.896 0 160 0Z" fill="white"/>
<path d="M458.668 128H341.334V10.667C341.334 4.771 336.564 0 330.668 0H309.335C303.439 0 298.668 4.771 298.668 10.667V160C298.668 165.896 303.439 170.667 309.335 170.667H458.668C464.564 170.667 469.335 165.896 469.335 160V138.667C469.334 132.771 464.564 128 458.668 128Z" fill="white"/>
<path d="M458.665 298.668H309.331C303.435 298.668 298.664 303.439 298.664 309.335V458.668C298.664 464.564 303.435 469.335 309.331 469.335H330.664C336.56 469.335 341.331 464.564 341.331 458.668V341.334H458.664C464.56 341.334 469.331 336.563 469.331 330.667V309.334C469.331 303.438 464.561 298.668 458.665 298.668Z" fill="white"/>
<path d="M160 298.668H10.667C4.771 298.668 0 303.438 0 309.334V330.667C0 336.563 4.771 341.334 10.667 341.334H128V458.667C128 464.563 132.771 469.334 138.667 469.334H160C165.896 469.334 170.667 464.563 170.667 458.667V309.334C170.667 303.438 165.896 298.668 160 298.668Z" fill="white"/>
</g>
<defs>
<clipPath id="clip0">
<rect width="469.333" height="469.333" fill="white"/>
</clipPath>
</defs>
</svg>
