<svg width="500" height="500" viewBox="0 0 500 500" fill="none" xmlns="http://www.w3.org/2000/svg">
<circle cx="250" cy="250" r="250" fill="black" fill-opacity="0.25"/>
<path d="M212.084 120H157.918C148.959 120 141.668 127.291 141.668 136.25V363.75C141.668 372.709 148.959 380 157.918 380H212.085C221.044 380 228.335 372.709 228.335 363.75V136.25C228.334 127.291 221.044 120 212.084 120Z" fill="white"/>
<path d="M342.084 120H287.918C278.959 120 271.668 127.291 271.668 136.25V363.75C271.668 372.709 278.959 380 287.918 380H342.085C351.044 380 358.335 372.709 358.335 363.75V136.25C358.334 127.291 351.044 120 342.084 120Z" fill="white"/>
</svg>
