<svg width="494" height="494" viewBox="0 0 494 494" fill="none" xmlns="http://www.w3.org/2000/svg">
<g clip-path="url(#clip0)">
<path d="M382.858 200.956L77.5477 12.128C65.0027 4.35205 51.955 0.248047 40.7846 0.248047C16.2596 0.248047 0 18.744 0 48.508V445.544C0 460.084 4.70215 472.232 11.6731 480.688C18.7508 489.26 29.8233 493.796 41.7855 493.796C52.9515 493.796 65.4831 489.684 78.0237 481.92L383.058 293.092C402.668 280.94 413.42 264.584 413.416 247.016C413.416 229.456 402.494 213.1 382.858 200.956Z" fill="white"/>
<path d="M456.448 493.672L456.155 493.668C456.107 493.668 456.06 493.672 456.012 493.672H456.448Z" fill="white"/>
<path d="M455.638 0L444.29 0.032C429.43 0.032 416.566 12.144 416.566 27.024V466.392C416.566 481.288 429.218 493.516 444.098 493.516L456.153 493.668C470.958 493.589 482.11 481.256 482.11 466.416V26.996C482.11 12.116 470.51 0 455.638 0Z" fill="white"/>
</g>
<defs>
<clipPath id="clip0">
<rect width="493.796" height="493.796" fill="white"/>
</clipPath>
</defs>
</svg>
