<svg width="512" height="512" viewBox="0 0 512 512" fill="none" xmlns="http://www.w3.org/2000/svg">
<path d="M181.334 0H74.668C57.025 0 42.668 14.357 42.668 32V480C42.668 497.643 57.025 512 74.668 512H181.335C198.978 512 213.335 497.643 213.335 480V32C213.334 14.357 198.977 0 181.334 0Z" fill="white"/>
<path d="M437.334 0H330.668C313.025 0 298.668 14.357 298.668 32V480C298.668 497.643 313.025 512 330.668 512H437.335C454.978 512 469.335 497.643 469.335 480V32C469.334 14.357 454.977 0 437.334 0Z" fill="white"/>
</svg>
