<svg width="512" height="512" viewBox="0 0 512 512" fill="none" xmlns="http://www.w3.org/2000/svg">
<path d="M256 403.5C269.807 403.5 281 392.307 281 378.5C281 364.693 269.807 353.5 256 353.5C242.193 353.5 231 364.693 231 378.5C231 392.307 242.193 403.5 256 403.5Z" fill="white"/>
<path d="M256 0C114.516 0 0 114.497 0 256C0 397.484 114.497 512 256 512C397.484 512 512 397.503 512 256C512 114.516 397.503 0 256 0ZM256 472C136.623 472 40 375.393 40 256C40 136.623 136.607 40 256 40C375.377 40 472 136.607 472 256C472 375.377 375.393 472 256 472Z" fill="white"/>
<path d="M256 128.5C211.888 128.5 176 164.388 176 208.5C176 219.546 184.954 228.5 196 228.5C207.046 228.5 216 219.546 216 208.5C216 186.444 233.944 168.5 256 168.5C278.056 168.5 296 186.444 296 208.5C296 230.556 278.056 248.5 256 248.5C244.954 248.5 236 257.454 236 268.5V318.5C236 329.546 244.954 338.5 256 338.5C267.046 338.5 276 329.546 276 318.5V285.969C310.466 277.066 336 245.709 336 208.5C336 164.388 300.112 128.5 256 128.5Z" fill="white"/>
</svg>
