<svg width="512" height="512" viewBox="0 0 512 512" fill="none" xmlns="http://www.w3.org/2000/svg">
<g clip-path="url(#clip0)">
<path d="M512 302.883C512 359.047 494.125 412.359 460.309 457.066C453.637 465.891 441.09 467.602 432.293 460.949C423.484 454.285 421.746 441.742 428.406 432.934C456.926 395.234 472 350.262 472 302.883C472 183.5 375.316 87 256 87C136.602 87 40 183.574 40 302.883C40 350.262 55.0742 395.234 83.5898 432.934C90.2539 441.742 88.5156 454.285 79.707 460.949C70.8945 467.613 58.3555 465.875 51.6875 457.066C17.875 412.359 0 359.047 0 302.883C0 161.383 114.578 47 256 47C397.5 47 512 161.461 512 302.883V302.883ZM382.723 182.434C390.531 190.242 390.531 202.906 382.723 210.715L317.531 275.906C322.898 285.801 325.953 297.129 325.953 309.152C325.953 347.727 294.57 379.105 256 379.105C217.426 379.105 186.047 347.727 186.047 309.152C186.047 270.582 217.426 239.199 256 239.199C268.027 239.199 279.352 242.254 289.246 247.621L354.438 182.43C362.25 174.621 374.91 174.621 382.723 182.434V182.434ZM285.953 309.156C285.953 292.641 272.516 279.203 256 279.203C239.484 279.203 226.047 292.641 226.047 309.156C226.047 325.672 239.484 339.109 256 339.109C272.516 339.109 285.953 325.672 285.953 309.156Z" fill="white"/>
</g>
<defs>
<clipPath id="clip0">
<rect width="512" height="512" fill="white"/>
</clipPath>
</defs>
</svg>
