<svg width="512" height="512" viewBox="0 0 512 512" fill="none" xmlns="http://www.w3.org/2000/svg">
<path d="M45 47H467C491.812 47 512 67.1875 512 92V332C512 356.812 491.812 377 467 377H421V452C421 464.402 406.816 471.363 397 464L281 377H45C20.1875 377 0 356.812 0 332V92C0 67.1875 20.1875 47 45 47ZM316 287H406C414.285 287 421 280.285 421 272C421 263.715 414.285 257 406 257H316C307.715 257 301 263.715 301 272C301 280.285 307.715 287 316 287ZM406 227C414.285 227 421 220.285 421 212C421 203.715 414.285 197 406 197H226C217.715 197 211 203.715 211 212C211 220.285 217.715 227 226 227H406ZM106 287H256C264.285 287 271 280.285 271 272C271 263.715 264.285 257 256 257H106C97.7148 257 91 263.715 91 272C91 280.285 97.7148 287 106 287ZM106 227H166C174.285 227 181 220.285 181 212C181 203.715 174.285 197 166 197H106C97.7148 197 91 203.715 91 212C91 220.285 97.7148 227 106 227ZM106 167H406C414.285 167 421 160.285 421 152C421 143.715 414.285 137 406 137H106C97.7148 137 91 143.715 91 152C91 160.285 97.7148 167 106 167Z" fill="white"/>
</svg>
